<svg width="450.595" height="450.217" viewBox="0 0 119.22 119.12" xmlns="http://www.w3.org/2000/svg" xmlns:xlink="http://www.w3.org/1999/xlink">
  <defs>
    <radialGradient id="b" cx="320.74" cy="403.28" r="52.856" gradientUnits="userSpaceOnUse" spreadMethod="repeat" xlink:href="#a"/>
    <radialGradient id="c" cx="320.74" cy="403.28" r="52.856" gradientUnits="userSpaceOnUse" xlink:href="#a"/>
    <linearGradient id="a">
      <stop stop-color="#fff" offset="0"/>
      <stop stop-color="#7f7f7f" offset="1"/>
    </linearGradient>
  </defs>
  <path d="m45.373 45.364 28.223-.058-14.112 14.169-14.111-14.111zM39.687 22.71h13.229v5.736H39.687z" fill="red" fill-rule="evenodd"/>
  <path d="M52.916 5.8h13.229v39.568H52.916z" fill="red" fill-rule="evenodd"/>
  <path d="M52.916 45.306V.26" fill="none" stroke="#000" stroke-width=".28362976"/>
  <path d="M66.145.02V45.35" fill="none" stroke="#000" stroke-width=".28283601999999997"/>
  <path d="M39.687 39.689h39.687" fill="none" stroke="#000" stroke-width=".26458"/>
  <path d="M39.915 17.244h39.33M39.915 5.98h39.33M39.915 11.612h39.33M39.915 22.875h39.33M39.915 28.507h39.33M39.915 34.14h39.33" fill="none" stroke="#000" stroke-width=".34739353999999995"/>
  <path d="M61.84 3.075a2.29 2.29 0 1 1-4.58 0 2.29 2.29 0 1 1 4.58 0zM75.133 25.562a2.29 2.29 0 1 1-4.58 0 2.29 2.29 0 1 1 4.58 0z" fill-opacity=".552" fill-rule="evenodd"/>
  <path d="M48.796 25.72a2.29 2.29 0 1 1-4.579 0 2.29 2.29 0 1 1 4.58 0z" fill="none" stroke="#000" stroke-width=".22897"/>
  <path d="m39.687 39.689 39.687 39.687M79.374 39.689 39.687 79.376" fill="none" stroke="#000" stroke-width=".26458"/>
  <path d="M45.444 45.382h28.191" fill="none" stroke="#000" stroke-linejoin="bevel" stroke-width=".31961263999999995"/>
  <text transform="rotate(180 -.444 -5.603) scale(.26458)" x="-186.304" y="-138.02" font-family="'Bitstream Vera Sans'" font-size="4"><tspan x="-186.304" y="-138.02">SALIDA</tspan></text>
  <path d="m73.688 73.719-28.223.057 14.112-14.168 14.111 14.111zM79.374 96.372H66.145v-5.735h13.229z" fill="#ff0" fill-rule="evenodd"/>
  <path d="M66.145 113.284H52.916V73.716h13.229z" fill="#ff0" fill-rule="evenodd"/>
  <path d="M66.145 73.78v45.044" fill="none" stroke="#000" stroke-width=".28362976"/>
  <path d="M52.916 119.063V73.735" fill="none" stroke="#000" stroke-width=".28283601999999997"/>
  <path d="M79.374 79.394H39.687" fill="none" stroke="#000" stroke-width=".26458"/>
  <path d="M79.374 101.841H39.817M79.374 113.104H39.817M79.374 107.471H39.817M79.374 96.208H39.817" fill="none" stroke="#000" stroke-width=".34845185999999995"/>
  <path d="M79.2 90.538H39.813" fill="none" stroke="#000" stroke-width=".30558989999999997"/>
  <path d="M79.374 84.945H39.817" fill="none" stroke="#000" stroke-width=".34845185999999995"/>
  <path d="M57.22 116.008a2.29 2.29 0 1 1 4.58 0 2.29 2.29 0 1 1-4.58 0zM43.928 93.365a2.29 2.29 0 1 1 4.58 0 2.29 2.29 0 1 1-4.58 0z" fill-opacity=".552" fill-rule="evenodd"/>
  <path d="M70.264 93.365a2.29 2.29 0 1 1 4.58 0 2.29 2.29 0 1 1-4.58 0z" fill="none" stroke="#000" stroke-width=".22897"/>
  <path d="M73.617 73.703H45.426" fill="none" stroke="#000" stroke-linejoin="bevel" stroke-width=".31961263999999995"/>
  <text x="270.414" y="396.775" font-family="'Bitstream Vera Sans'" font-size="4" transform="translate(-.889 -11.206) scale(.26458)"><tspan x="270.414" y="396.775">SALIDA</tspan></text>
  <path d="M79.374.134h39.687V39.69H79.374zM.132.134h39.687V39.69H.132z" fill="#fff" fill-opacity=".278" fill-rule="evenodd" stroke="#000" stroke-width=".26405084"/>
  <path d="M36.937 19.845a17.095 17.095 0 1 1-34.19 0 17.095 17.095 0 1 1 34.19 0z" fill="red" fill-rule="evenodd" stroke="#000" stroke-width=".20557"/>
  <path d="M.153.132H119.06v118.802H.153z" fill="none" stroke="#000" stroke-width=".26458"/>
  <path d="M116.31 19.845a17.095 17.095 0 1 1-34.19 0 17.095 17.095 0 1 1 34.19 0z" fill="#00f" fill-rule="evenodd" stroke="#000" stroke-width=".20557"/>
  <path d="m45.344 73.56-.058-28.223L59.455 59.45 45.344 73.56zM22.69 79.243V66.014h5.736v13.23z" fill="green" fill-rule="evenodd"/>
  <path d="M5.778 66.014V52.785h39.568v13.23z" fill="green" fill-rule="evenodd"/>
  <path d="M45.286 66.014H.24" fill="none" stroke="#000" stroke-width=".28362976"/>
  <path d="M0 52.785h45.328" fill="none" stroke="#000" stroke-width=".28283601999999997"/>
  <path d="M39.825 79.243V39.556" fill="none" stroke="#000" stroke-width=".26458"/>
  <path d="M17.223 79.376v-39.69M5.96 79.376v-39.69M11.591 79.376v-39.69M22.854 79.376v-39.69M28.487 79.376v-39.69M34.118 79.376v-39.69" fill="none" stroke="#000" stroke-width=".34898102"/>
  <path d="M3.054 57.09a2.29 2.29 0 1 1 0 4.579 2.29 2.29 0 1 1 0-4.58zM25.62 43.797a2.29 2.29 0 1 1 0 4.58 2.29 2.29 0 1 1 0-4.58z" fill-opacity=".552" fill-rule="evenodd"/>
  <path d="M25.699 70.133a2.29 2.29 0 1 1 0 4.58 2.29 2.29 0 1 1 0-4.58z" fill="none" stroke="#000" stroke-width=".22897"/>
  <path d="M45.36 73.486v-28.19" fill="none" stroke="#000" stroke-linejoin="bevel" stroke-width=".31961263999999995"/>
  <text transform="rotate(90 5.159 -6.048) scale(.26458)" x="308.917" y="-98.946" font-family="'Bitstream Vera Sans'" font-size="4"><tspan x="308.917" y="-98.946">SALIDA</tspan></text>
  <path d="M.132 79.429h39.687v39.554H.132z" fill="#fff" fill-opacity=".278" fill-rule="evenodd" stroke="#000" stroke-width=".26405084"/>
  <path d="M36.937 99.22a17.095 17.095 0 1 1-34.19 0 17.095 17.095 0 1 1 34.19 0z" fill="green" fill-rule="evenodd" stroke="#000" stroke-width=".20557"/>
  <path d="M79.4 79.508h39.687v39.425H79.4z" fill="#fff" fill-opacity=".278" fill-rule="evenodd" stroke="#000" stroke-width=".26378626"/>
  <path d="M116.047 99.22c0 9.436-7.658 17.094-17.094 17.094s-17.095-7.659-17.095-17.095 7.658-17.095 17.095-17.095 17.094 7.659 17.094 17.095z" fill="#ff0" fill-rule="evenodd" stroke="#000" stroke-width=".20557866"/>
  <path d="m73.717 45.374.058 28.223-14.169-14.111 14.111-14.112zM96.212 39.689v13.229h-5.736v-13.23z" fill="#00f" fill-rule="evenodd"/>
  <path d="M113.283 52.918v13.229H73.715v-13.23z" fill="#00f" fill-rule="evenodd"/>
  <path d="M73.778 52.918h45.283" fill="none" stroke="#000" stroke-width=".2844235"/>
  <path d="M119.061 66.147H73.733" fill="none" stroke="#000" stroke-width=".28283601999999997"/>
  <path d="M79.393 39.689v39.687" fill="none" stroke="#000" stroke-width=".26458"/>
  <path d="M101.837 39.919v39.457" fill="none" stroke="#000" stroke-width=".3479227"/>
  <path d="M113.103 39.689v39.687M107.47 39.689v39.687" fill="none" stroke="#000" stroke-width=".34898102"/>
  <path d="M96.207 39.863v39.513" fill="none" stroke="#000" stroke-width=".34818728"/>
  <path d="M90.574 39.689v39.687M84.943 39.689v39.687" fill="none" stroke="#000" stroke-width=".34898102"/>
  <path d="M116.006 61.842a2.29 2.29 0 1 1 0-4.579 2.29 2.29 0 1 1 0 4.58zM93.36 75.135a2.29 2.29 0 1 1 0-4.58 2.29 2.29 0 1 1 0 4.58z" fill-opacity=".552" fill-rule="evenodd"/>
  <path d="M93.205 48.799a2.29 2.29 0 1 1 0-4.58 2.29 2.29 0 1 1 0 4.58z" fill="none" stroke="#000" stroke-width=".22897"/>
  <path d="M73.699 45.449v28.19" fill="none" stroke="#000" stroke-linejoin="bevel" stroke-width=".31961263999999995"/>
  <text transform="rotate(-90 -6.048 -5.159) scale(.26458)" x="-225.307" y="357.175" font-family="'Bitstream Vera Sans'" font-size="4"><tspan x="-225.307" y="357.175">SALIDA</tspan></text>
  <text x="254.969" y="475.733" font-family="'Bitstream Vera Sans'" font-size="4" transform="translate(-.889 -11.206) scale(.26458)"><tspan x="254.969" y="475.733" font-family="Arial" font-size="6" font-weight="bold">1</tspan></text>
  <text x="254.969" y="454.543" font-family="'Bitstream Vera Sans'" font-size="4" transform="translate(-.889 -11.206) scale(.26458)"><tspan x="254.969" y="454.543" font-family="Arial" font-size="6" font-weight="bold">2</tspan></text>
  <text x="254.969" y="433.65" font-family="'Bitstream Vera Sans'" font-size="4" transform="translate(-.889 -11.206) scale(.26458)"><tspan x="254.969" y="433.65" font-family="Arial" font-size="6" font-weight="bold">3</tspan></text>
  <text x="254.969" y="412.28" font-family="'Bitstream Vera Sans'" font-size="4" transform="translate(-.889 -11.206) scale(.26458)"><tspan x="254.969" y="412.28" font-family="Arial" font-size="6" font-weight="bold">4</tspan></text>
  <text x="254.969" y="390.492" font-family="'Bitstream Vera Sans'" font-size="4" transform="translate(-.889 -11.206) scale(.26458)"><tspan x="254.969" y="390.492" font-family="Arial" font-size="6" font-weight="bold">5</tspan></text>
  <text x="254.969" y="369.776" font-family="'Bitstream Vera Sans'" font-size="4" transform="translate(-.889 -11.206) scale(.26458)"><tspan x="254.969" y="369.776" font-family="Arial" font-size="6" font-weight="bold">6</tspan></text>
  <text x="254.969" y="348.705" font-family="'Bitstream Vera Sans'" font-size="4" transform="translate(-.889 -11.206) scale(.26458)"><tspan x="254.969" y="348.705" font-family="Arial" font-size="6" font-weight="bold">7</tspan></text>
  <text x="254.969" y="327.216" font-family="'Bitstream Vera Sans'" font-size="4" transform="translate(-.889 -11.206) scale(.26458)"><tspan x="254.969" y="327.216" font-family="Arial" font-size="6" font-weight="bold">8</tspan></text>
  <text transform="rotate(-90 -6.048 -5.159) scale(.26458)" x="-300.929" y="436.906" font-family="'Bitstream Vera Sans'" font-size="4"><tspan x="-300.929" y="436.906" font-family="Arial" font-size="6" font-weight="bold">16</tspan></text>
  <text transform="rotate(-90 -6.048 -5.159) scale(.26458)" x="-300.929" y="415.715" font-family="'Bitstream Vera Sans'" font-size="4"><tspan x="-300.929" y="415.715" font-family="Arial" font-size="6" font-weight="bold">15</tspan></text>
  <text transform="rotate(-90 -6.048 -5.159) scale(.26458)" x="-300.929" y="394.524" font-family="'Bitstream Vera Sans'" font-size="4"><tspan x="-300.929" y="394.524" font-family="Arial" font-size="6" font-weight="bold">14</tspan></text>
  <text transform="rotate(-90 -6.048 -5.159) scale(.26458)" x="-300.929" y="373.035" font-family="'Bitstream Vera Sans'" font-size="4"><tspan x="-300.929" y="373.035" font-family="Arial" font-size="6" font-weight="bold">13</tspan></text>
  <text transform="rotate(-90 -6.048 -5.159) scale(.26458)" x="-300.929" y="351.844" font-family="'Bitstream Vera Sans'" font-size="4"><tspan x="-300.929" y="351.844" font-family="Arial" font-size="6" font-weight="bold">12</tspan></text>
  <text transform="rotate(-90 -6.048 -5.159) scale(.26458)" x="-300.929" y="330.949" font-family="'Bitstream Vera Sans'" font-size="4"><tspan x="-300.929" y="330.949" font-family="Arial" font-size="6" font-weight="bold">11</tspan></text>
  <text transform="rotate(-90 -6.048 -5.159) scale(.26458)" x="-300.929" y="309.459" font-family="'Bitstream Vera Sans'" font-size="4"><tspan x="-300.929" y="309.459" font-family="Arial" font-size="6" font-weight="bold">10</tspan></text>
  <text transform="rotate(-90 -6.048 -5.159) scale(.26458)" x="-300.929" y="288.328" font-family="'Bitstream Vera Sans'" font-size="4"><tspan x="-300.929" y="288.328" font-family="Arial" font-size="6" font-weight="bold">9</tspan></text>
  <text transform="rotate(-90 -6.048 -5.159) scale(.26458)" x="-240.341" y="436.906" font-family="'Bitstream Vera Sans'" font-size="4"><tspan x="-240.341" y="436.906" font-family="Arial" font-size="6" font-weight="bold">18</tspan></text>
  <text transform="rotate(-90 -6.048 -5.159) scale(.26458)" x="-240.341" y="415.715" font-family="'Bitstream Vera Sans'" font-size="4"><tspan x="-240.341" y="415.715" font-family="Arial" font-size="6" font-weight="bold">19</tspan></text>
  <text transform="rotate(-90 -6.048 -5.159) scale(.26458)" x="-240.341" y="394.524" font-family="'Bitstream Vera Sans'" font-size="4"><tspan x="-240.341" y="394.524" font-family="Arial" font-size="6" font-weight="bold">20</tspan></text>
  <text transform="rotate(-90 -6.048 -5.159) scale(.26458)" x="-240.341" y="373.108" font-family="'Bitstream Vera Sans'" font-size="4"><tspan x="-240.341" y="373.108" font-family="Arial" font-size="6" font-weight="bold">21</tspan></text>
  <text transform="rotate(-90 -6.048 -5.159) scale(.26458)" x="-240.341" y="351.844" font-family="'Bitstream Vera Sans'" font-size="4"><tspan x="-240.341" y="351.844" font-family="Arial" font-size="6" font-weight="bold">22</tspan></text>
  <text transform="rotate(-90 -6.048 -5.159) scale(.26458)" x="-240.341" y="330.949" font-family="'Bitstream Vera Sans'" font-size="4"><tspan x="-240.341" y="330.949" font-family="Arial" font-size="6" font-weight="bold">23</tspan></text>
  <text transform="rotate(-90 -6.048 -5.159) scale(.26458)" x="-240.341" y="309.459" font-family="'Bitstream Vera Sans'" font-size="4"><tspan x="-240.341" y="309.459" font-family="Arial" font-size="6" font-weight="bold">24</tspan></text>
  <text transform="rotate(-90 -6.048 -5.159) scale(.26458)" x="-240.341" y="288.03" font-family="'Bitstream Vera Sans'" font-size="4"><tspan x="-240.341" y="288.03" font-family="Arial" font-size="6" font-weight="bold">25</tspan></text>
  <text transform="rotate(-90 -6.048 -5.159) scale(.26458)" x="-289.926" y="436.957" font-family="'Bitstream Vera Sans'" font-size="4"><tspan x="-289.926" y="436.957" font-family="Arial" font-size="6" font-weight="bold">17</tspan></text>
  <text transform="rotate(180 5.292 -5.603) scale(.26458)" x="-218.64" y="-58.101" font-family="'Bitstream Vera Sans'" font-size="4"><tspan x="-218.64" y="-58.101" font-family="Arial" font-size="6" font-weight="bold">33</tspan></text>
  <text transform="rotate(180 5.292 -5.603) scale(.26458)" x="-218.64" y="-79.292" font-family="'Bitstream Vera Sans'" font-size="4"><tspan x="-218.64" y="-79.292" font-family="Arial" font-size="6" font-weight="bold">32</tspan></text>
  <text transform="rotate(180 5.292 -5.603) scale(.26458)" x="-218.64" y="-100.482" font-family="'Bitstream Vera Sans'" font-size="4"><tspan x="-218.64" y="-100.482" font-family="Arial" font-size="6" font-weight="bold">31</tspan></text>
  <text transform="rotate(180 5.292 -5.603) scale(.26458)" x="-218.64" y="-121.972" font-family="'Bitstream Vera Sans'" font-size="4"><tspan x="-218.64" y="-121.972" font-family="Arial" font-size="6" font-weight="bold">30</tspan></text>
  <text transform="rotate(180 5.292 -5.603) scale(.26458)" x="-218.64" y="-143.163" font-family="'Bitstream Vera Sans'" font-size="4"><tspan x="-218.64" y="-143.163" font-family="Arial" font-size="6" font-weight="bold">29</tspan></text>
  <text transform="rotate(180 5.292 -5.603) scale(.26458)" x="-218.64" y="-164.058" font-family="'Bitstream Vera Sans'" font-size="4"><tspan x="-218.64" y="-164.058" font-family="Arial" font-size="6" font-weight="bold">28</tspan></text>
  <text transform="rotate(180 5.292 -5.603) scale(.26458)" x="-218.64" y="-185.547" font-family="'Bitstream Vera Sans'" font-size="4"><tspan x="-218.64" y="-185.547" font-family="Arial" font-size="6" font-weight="bold">27</tspan></text>
  <text transform="rotate(180 5.292 -5.603) scale(.26458)" x="-218.64" y="-206.678" font-family="'Bitstream Vera Sans'" font-size="4"><tspan x="-218.64" y="-206.678" font-family="Arial" font-size="6" font-weight="bold">26</tspan></text>
  <text transform="rotate(180 5.292 -5.603) scale(.26458)" x="-158.052" y="-58.101" font-family="'Bitstream Vera Sans'" font-size="4"><tspan x="-158.052" y="-58.101" font-family="Arial" font-size="6" font-weight="bold">35</tspan></text>
  <text transform="rotate(180 5.292 -5.603) scale(.26458)" x="-158.052" y="-79.292" font-family="'Bitstream Vera Sans'" font-size="4"><tspan x="-158.052" y="-79.292" font-family="Arial" font-size="6" font-weight="bold">36</tspan></text>
  <text transform="rotate(180 5.292 -5.603) scale(.26458)" x="-158.052" y="-100.482" font-family="'Bitstream Vera Sans'" font-size="4"><tspan x="-158.052" y="-100.482" font-family="Arial" font-size="6" font-weight="bold">37</tspan></text>
  <text transform="rotate(180 5.292 -5.603) scale(.26458)" x="-158.052" y="-121.899" font-family="'Bitstream Vera Sans'" font-size="4"><tspan x="-158.052" y="-121.899" font-family="Arial" font-size="6" font-weight="bold">38</tspan></text>
  <text transform="rotate(180 5.292 -5.603) scale(.26458)" x="-158.052" y="-143.163" font-family="'Bitstream Vera Sans'" font-size="4"><tspan x="-158.052" y="-143.163" font-family="Arial" font-size="6" font-weight="bold">39</tspan></text>
  <text transform="rotate(180 5.292 -5.603) scale(.26458)" x="-158.052" y="-164.058" font-family="'Bitstream Vera Sans'" font-size="4"><tspan x="-158.052" y="-164.058" font-family="Arial" font-size="6" font-weight="bold">40</tspan></text>
  <text transform="rotate(180 5.292 -5.603) scale(.26458)" x="-158.052" y="-185.547" font-family="'Bitstream Vera Sans'" font-size="4"><tspan x="-158.052" y="-185.547" font-family="Arial" font-size="6" font-weight="bold">41</tspan></text>
  <text transform="rotate(180 5.292 -5.603) scale(.26458)" x="-158.052" y="-206.977" font-family="'Bitstream Vera Sans'" font-size="4"><tspan x="-158.052" y="-206.977" font-family="Arial" font-size="6" font-weight="bold">42</tspan></text>
  <text transform="rotate(180 5.292 -5.603) scale(.26458)" x="-207.637" y="-58.05" font-family="'Bitstream Vera Sans'" font-size="4"><tspan x="-207.637" y="-58.05" font-family="Arial" font-size="6" font-weight="bold">34</tspan></text>
  <text transform="rotate(90 -59.738 48.617) scale(.26458)" x="-218.64" y="-58.101" font-family="'Bitstream Vera Sans'" font-size="4"><tspan x="-218.64" y="-58.101" font-family="Arial" font-size="6" font-weight="bold">50</tspan></text>
  <text transform="rotate(90 -59.738 48.617) scale(.26458)" x="-218.64" y="-79.292" font-family="'Bitstream Vera Sans'" font-size="4"><tspan x="-218.64" y="-79.292" font-family="Arial" font-size="6" font-weight="bold">49</tspan></text>
  <text transform="rotate(90 -59.738 48.617) scale(.26458)" x="-218.64" y="-100.482" font-family="'Bitstream Vera Sans'" font-size="4"><tspan x="-218.64" y="-100.482" font-family="Arial" font-size="6" font-weight="bold">48</tspan></text>
  <text transform="rotate(90 -59.738 48.617) scale(.26458)" x="-218.64" y="-121.972" font-family="'Bitstream Vera Sans'" font-size="4"><tspan x="-218.64" y="-121.972" font-family="Arial" font-size="6" font-weight="bold">47</tspan></text>
  <text transform="rotate(90 -59.738 48.617) scale(.26458)" x="-218.64" y="-143.163" font-family="'Bitstream Vera Sans'" font-size="4"><tspan x="-218.64" y="-143.163" font-family="Arial" font-size="6" font-weight="bold">46</tspan></text>
  <text transform="rotate(90 -59.738 48.617) scale(.26458)" x="-218.64" y="-164.058" font-family="'Bitstream Vera Sans'" font-size="4"><tspan x="-218.64" y="-164.058" font-family="Arial" font-size="6" font-weight="bold">45</tspan></text>
  <text transform="rotate(90 -59.738 48.617) scale(.26458)" x="-218.64" y="-185.547" font-family="'Bitstream Vera Sans'" font-size="4"><tspan x="-218.64" y="-185.547" font-family="Arial" font-size="6" font-weight="bold">44</tspan></text>
  <text transform="rotate(90 -59.738 48.617) scale(.26458)" x="-218.64" y="-206.678" font-family="'Bitstream Vera Sans'" font-size="4"><tspan x="-218.64" y="-206.678" font-family="Arial" font-size="6" font-weight="bold">43</tspan></text>
  <text transform="rotate(90 -59.738 48.617) scale(.26458)" x="-158.052" y="-58.101" font-family="'Bitstream Vera Sans'" font-size="4"><tspan x="-158.052" y="-58.101" font-family="Arial" font-size="6" font-weight="bold">52</tspan></text>
  <text transform="rotate(90 -59.738 48.617) scale(.26458)" x="-158.052" y="-79.292" font-family="'Bitstream Vera Sans'" font-size="4"><tspan x="-158.052" y="-79.292" font-family="Arial" font-size="6" font-weight="bold">53</tspan></text>
  <text transform="rotate(90 -59.738 48.617) scale(.26458)" x="-158.052" y="-100.482" font-family="'Bitstream Vera Sans'" font-size="4"><tspan x="-158.052" y="-100.482" font-family="Arial" font-size="6" font-weight="bold">54</tspan></text>
  <text transform="rotate(90 -59.738 48.617) scale(.26458)" x="-158.052" y="-121.899" font-family="'Bitstream Vera Sans'" font-size="4"><tspan x="-158.052" y="-121.899" font-family="Arial" font-size="6" font-weight="bold">55</tspan></text>
  <text transform="rotate(90 -59.738 48.617) scale(.26458)" x="-158.052" y="-143.163" font-family="'Bitstream Vera Sans'" font-size="4"><tspan x="-158.052" y="-143.163" font-family="Arial" font-size="6" font-weight="bold">56</tspan></text>
  <text transform="rotate(90 -59.738 48.617) scale(.26458)" x="-158.052" y="-164.058" font-family="'Bitstream Vera Sans'" font-size="4"><tspan x="-158.052" y="-164.058" font-family="Arial" font-size="6" font-weight="bold">57</tspan></text>
  <text transform="rotate(90 -59.738 48.617) scale(.26458)" x="-158.052" y="-185.547" font-family="'Bitstream Vera Sans'" font-size="4"><tspan x="-158.052" y="-185.547" font-family="Arial" font-size="6" font-weight="bold">58</tspan></text>
  <text transform="rotate(90 -59.738 48.617) scale(.26458)" x="-158.052" y="-206.977" font-family="'Bitstream Vera Sans'" font-size="4"><tspan x="-158.052" y="-206.977" font-family="Arial" font-size="6" font-weight="bold">59</tspan></text>
  <text transform="rotate(90 -59.738 48.617) scale(.26458)" x="-207.637" y="-58.05" font-family="'Bitstream Vera Sans'" font-size="4"><tspan x="-207.637" y="-58.05" font-family="Arial" font-size="6" font-weight="bold">51</tspan></text>
  <text x="194.907" y="475.733" font-family="'Bitstream Vera Sans'" font-size="4" transform="translate(-.889 -11.206) scale(.26458)"><tspan x="194.907" y="475.733" font-family="Arial" font-size="6" font-weight="bold">67</tspan></text>
  <text x="194.907" y="454.543" font-family="'Bitstream Vera Sans'" font-size="4" transform="translate(-.889 -11.206) scale(.26458)"><tspan x="194.907" y="454.543" font-family="Arial" font-size="6" font-weight="bold">66</tspan></text>
  <text x="194.907" y="433.65" font-family="'Bitstream Vera Sans'" font-size="4" transform="translate(-.889 -11.206) scale(.26458)"><tspan x="194.907" y="433.65" font-family="Arial" font-size="6" font-weight="bold">65</tspan></text>
  <text x="194.907" y="412.28" font-family="'Bitstream Vera Sans'" font-size="4" transform="translate(-.889 -11.206) scale(.26458)"><tspan x="194.907" y="412.28" font-family="Arial" font-size="6" font-weight="bold">64</tspan></text>
  <text x="194.907" y="390.492" font-family="'Bitstream Vera Sans'" font-size="4" transform="translate(-.889 -11.206) scale(.26458)"><tspan x="194.907" y="390.492" font-family="Arial" font-size="6" font-weight="bold">63</tspan></text>
  <text x="194.907" y="369.776" font-family="'Bitstream Vera Sans'" font-size="4" transform="translate(-.889 -11.206) scale(.26458)"><tspan x="194.907" y="369.776" font-family="Arial" font-size="6" font-weight="bold">62</tspan></text>
  <text x="194.907" y="348.705" font-family="'Bitstream Vera Sans'" font-size="4" transform="translate(-.889 -11.206) scale(.26458)"><tspan x="194.907" y="348.705" font-family="Arial" font-size="6" font-weight="bold">61</tspan></text>
  <text x="194.907" y="327.216" font-family="'Bitstream Vera Sans'" font-size="4" transform="translate(-.889 -11.206) scale(.26458)"><tspan x="194.907" y="327.216" font-family="Arial" font-size="6" font-weight="bold">60</tspan></text>
  <text x="205.225" y="475.733" font-family="'Bitstream Vera Sans'" font-size="4" transform="translate(-.889 -11.206) scale(.26458)"><tspan x="205.225" y="475.733" font-family="Arial" font-size="6" font-weight="bold">68</tspan></text>
  <path transform="rotate(46.605 100.962 119.065) scale(.26458)" d="m360 440-22.349-11.17.946 24.967-14.598-20.277-10.766 22.547-3.503-24.739-20.011 14.961 8.395-23.533-24.671 3.948 18.37-16.936-23.68-7.97 24.136-6.459-17.264-18.06 24.373 5.497-6.894-24.016 19.027 16.194 5.057-24.468 9.322 23.18 15.849-19.314-2.52 24.858 23.01-9.738-13.782 20.84 24.899 2.07-21.89 12.049 21.086 13.405-24.98.495L360.002 440z" fill="url(#b)" fill-rule="evenodd" stroke="#000" stroke-linejoin="bevel" stroke-width=".5"/>
  <path transform="rotate(67.66 156.857 73.746) scale(.26458)" d="m360 440-22.349-11.17.946 24.967-14.598-20.277-10.766 22.547-3.503-24.739-20.011 14.961 8.395-23.533-24.671 3.948 18.37-16.936-23.68-7.97 24.136-6.459-17.264-18.06 24.373 5.497-6.894-24.016 19.027 16.194 5.057-24.468 9.322 23.18 15.849-19.314-2.52 24.858 23.01-9.738-13.782 20.84 24.899 2.07-21.89 12.049 21.086 13.405-24.98.495L360.002 440z" fill="url(#c)" fill-rule="evenodd" stroke="#000" stroke-linejoin="bevel" stroke-width=".5"/>
  <path transform="matrix(-.18177 .19225 .19225 .18177 .68 -36.098)" d="m360 440-22.349-11.17.946 24.967-14.598-20.277-10.766 22.547-3.503-24.739-20.011 14.961 8.395-23.533-24.671 3.948 18.37-16.936-23.68-7.97 24.136-6.459-17.264-18.06 24.373 5.497-6.894-24.016 19.027 16.194 5.057-24.468 9.322 23.18 15.849-19.314-2.52 24.858 23.01-9.738-13.782 20.84 24.899 2.07-21.89 12.049 21.086 13.405-24.98.495L360.002 440z" fill="url(#c)" fill-rule="evenodd" stroke="#000" stroke-linejoin="bevel" stroke-width=".5"/>
  <path transform="scale(-.26458 .26458) rotate(67.66 367.853 -56.99)" d="m360 440-22.349-11.17.946 24.967-14.598-20.277-10.766 22.547-3.503-24.739-20.011 14.961 8.395-23.533-24.671 3.948 18.37-16.936-23.68-7.97 24.136-6.459-17.264-18.06 24.373 5.497-6.894-24.016 19.027 16.194 5.057-24.468 9.322 23.18 15.849-19.314-2.52 24.858 23.01-9.738-13.782 20.84 24.899 2.07-21.89 12.049 21.086 13.405-24.98.495L360.002 440z" fill="url(#c)" fill-rule="evenodd" stroke="#000" stroke-linejoin="bevel" stroke-width=".5"/>
</svg>
